<?xml version="1.0" encoding="UTF-8"?>
<svg version="1.1" xmlns="http://www.w3.org/2000/svg" width="365" height="365">
<path d="M0 0 C0.90042023 -0.00570007 1.80084045 -0.01140015 2.72854614 -0.01727295 C4.62956589 -0.02667469 6.53060157 -0.03323761 8.43164062 -0.03710938 C11.27765083 -0.04673078 14.1229113 -0.07776555 16.96875 -0.109375 C32.15289856 -0.19811707 46.75541931 1.28165201 61.3203125 5.828125 C62.13709473 6.07900879 62.95387695 6.32989258 63.79541016 6.58837891 C108.26938169 20.8183507 145.93160753 51.77692028 167.42333984 93.20996094 C167.76059082 93.86770508 168.0978418 94.52544922 168.4453125 95.203125 C168.78900879 95.86602539 169.13270508 96.52892578 169.48681641 97.21191406 C181.82895439 121.293852 189.48800713 148.75584418 189.6484375 175.91015625 C189.65540649 176.70942535 189.66237549 177.50869446 189.66955566 178.33218384 C189.68683357 180.89338519 189.69327388 183.45436782 189.6953125 186.015625 C189.69631958 186.88961945 189.69732666 187.76361389 189.69836426 188.66409302 C189.68840505 201.42227312 189.23041115 213.70882009 186.4453125 226.203125 C186.20167969 227.45351562 185.95804687 228.70390625 185.70703125 229.9921875 C181.69717052 248.35012811 175.31792671 267.66184047 163.68652344 282.60742188 C162.42802039 284.22535576 161.21951457 285.87238524 160.015625 287.53125 C148.93729049 302.6013371 135.66912834 316.47492581 120.3046875 327.1953125 C118.34475232 328.57155114 116.41845831 329.99660324 114.5234375 331.4609375 C91.96312917 348.77753666 63.64426185 360.50056659 35.4453125 364.203125 C34.30964844 364.38101562 33.17398438 364.55890625 32.00390625 364.7421875 C3.16367437 368.23128668 -26.39839195 364.16498216 -53.5546875 354.203125 C-54.19583496 353.97544434 -54.83698242 353.74776367 -55.49755859 353.51318359 C-76.04094445 346.16064555 -94.50253383 335.10295344 -110.40625 320.17578125 C-112.57621181 318.13470691 -112.57621181 318.13470691 -115.12890625 316.16796875 C-118.7523279 313.23305556 -121.55288152 309.7549695 -124.5546875 306.203125 C-125.30878906 305.34847656 -126.06289062 304.49382812 -126.83984375 303.61328125 C-146.1997033 281.24666063 -159.75078791 253.73501465 -167.4296875 225.265625 C-167.71658447 224.20384033 -167.71658447 224.20384033 -168.00927734 223.12060547 C-171.29677616 210.08108928 -171.9625268 197.07469282 -171.9296875 183.703125 C-171.92914368 182.86718811 -171.92859985 182.03125122 -171.92803955 181.16998291 C-171.88820554 167.82367714 -171.02260089 155.15052235 -167.5546875 142.203125 C-167.21727539 140.91801025 -167.21727539 140.91801025 -166.87304688 139.60693359 C-154.42553263 93.22022588 -126.82143966 50.44740495 -84.93164062 25.65039062 C-59.02554462 10.912947 -30.1039574 0.15179856 0 0 Z " fill="#DEE5E8" transform="translate(173.5546875,-0.203125)"/>
<path d="M0 0 C0.90042023 -0.00570007 1.80084045 -0.01140015 2.72854614 -0.01727295 C4.62956589 -0.02667469 6.53060157 -0.03323761 8.43164062 -0.03710938 C11.27765083 -0.04673078 14.1229113 -0.07776555 16.96875 -0.109375 C32.15289856 -0.19811707 46.75541931 1.28165201 61.3203125 5.828125 C62.13709473 6.07900879 62.95387695 6.32989258 63.79541016 6.58837891 C108.26938169 20.8183507 145.93160753 51.77692028 167.42333984 93.20996094 C167.76059082 93.86770508 168.0978418 94.52544922 168.4453125 95.203125 C168.78900879 95.86602539 169.13270508 96.52892578 169.48681641 97.21191406 C181.82895439 121.293852 189.48800713 148.75584418 189.6484375 175.91015625 C189.65540649 176.70942535 189.66237549 177.50869446 189.66955566 178.33218384 C189.68683357 180.89338519 189.69327388 183.45436782 189.6953125 186.015625 C189.69631958 186.88961945 189.69732666 187.76361389 189.69836426 188.66409302 C189.68840505 201.42227312 189.23041115 213.70882009 186.4453125 226.203125 C186.20167969 227.45351562 185.95804687 228.70390625 185.70703125 229.9921875 C181.69717052 248.35012811 175.31792671 267.66184047 163.68652344 282.60742188 C162.42802039 284.22535576 161.21951457 285.87238524 160.015625 287.53125 C148.93729049 302.6013371 135.66912834 316.47492581 120.3046875 327.1953125 C118.34475232 328.57155114 116.41845831 329.99660324 114.5234375 331.4609375 C91.96312917 348.77753666 63.64426185 360.50056659 35.4453125 364.203125 C34.30964844 364.38101562 33.17398438 364.55890625 32.00390625 364.7421875 C3.16367437 368.23128668 -26.39839195 364.16498216 -53.5546875 354.203125 C-54.19583496 353.97544434 -54.83698242 353.74776367 -55.49755859 353.51318359 C-76.04094445 346.16064555 -94.50253383 335.10295344 -110.40625 320.17578125 C-112.57621181 318.13470691 -112.57621181 318.13470691 -115.12890625 316.16796875 C-118.7523279 313.23305556 -121.55288152 309.7549695 -124.5546875 306.203125 C-125.30878906 305.34847656 -126.06289062 304.49382812 -126.83984375 303.61328125 C-146.1997033 281.24666063 -159.75078791 253.73501465 -167.4296875 225.265625 C-167.71658447 224.20384033 -167.71658447 224.20384033 -168.00927734 223.12060547 C-171.29677616 210.08108928 -171.9625268 197.07469282 -171.9296875 183.703125 C-171.92914368 182.86718811 -171.92859985 182.03125122 -171.92803955 181.16998291 C-171.88820554 167.82367714 -171.02260089 155.15052235 -167.5546875 142.203125 C-167.21727539 140.91801025 -167.21727539 140.91801025 -166.87304688 139.60693359 C-154.42553263 93.22022588 -126.82143966 50.44740495 -84.93164062 25.65039062 C-59.02554462 10.912947 -30.1039574 0.15179856 0 0 Z M-19.5546875 23.203125 C-20.34069336 23.3278418 -21.12669922 23.45255859 -21.93652344 23.58105469 C-52.58637924 28.91611687 -80.36337801 46.08088589 -102.5546875 67.203125 C-103.20050781 67.79609375 -103.84632812 68.3890625 -104.51171875 69 C-113.90497176 77.88729325 -121.17451628 89.04779918 -127.5546875 100.203125 C-127.9141748 100.82106934 -128.27366211 101.43901367 -128.64404297 102.07568359 C-138.17588791 118.60444032 -144.66194107 136.53843028 -148.5546875 155.203125 C-148.77898437 156.20214844 -149.00328125 157.20117188 -149.234375 158.23046875 C-153.85845627 182.33270058 -150.92882401 210.22046138 -142.5546875 233.203125 C-142.30734863 233.88358887 -142.06000977 234.56405273 -141.80517578 235.26513672 C-135.58651445 251.97705709 -127.31720675 267.96820649 -116.5546875 282.203125 C-115.88308594 283.09773438 -115.21148437 283.99234375 -114.51953125 284.9140625 C-96.81556261 307.48248608 -74.94364833 322.5056282 -48.5546875 333.203125 C-47.46027344 333.65558594 -46.36585937 334.10804688 -45.23828125 334.57421875 C-37.93965132 337.39354511 -30.55843029 339.25839424 -22.9296875 340.953125 C-21.98794678 341.16404785 -21.04620605 341.3749707 -20.07592773 341.59228516 C6.53136974 347.22764188 33.87577808 345.15078646 59.4453125 336.203125 C60.43917969 335.86925781 61.43304688 335.53539062 62.45703125 335.19140625 C82.74424216 327.9368829 100.23825489 316.18522528 116.4453125 302.203125 C117.15171875 301.60886719 117.858125 301.01460938 118.5859375 300.40234375 C147.23623151 276.003008 165.03319567 242.51411171 168.08984375 204.890625 C171.2917165 158.20419257 160.01281283 113.05031344 130.4453125 76.203125 C129.64996094 75.15769531 128.85460937 74.11226562 128.03515625 73.03515625 C120.77700181 63.7331189 112.05753852 56.95649336 102.4453125 50.203125 C101.55803467 49.56914795 101.55803467 49.56914795 100.65283203 48.92236328 C75.47030397 31.09239816 44.44650385 20.75084759 13.61669922 20.94238281 C11.57879656 20.95308046 9.54178209 20.94242729 7.50390625 20.9296875 C-1.67305932 20.91974892 -10.47988082 21.7399719 -19.5546875 23.203125 Z " fill="#000101" transform="translate(173.5546875,-0.203125)"/>
<path d="M0 0 C0.99 0.495 0.99 0.495 2 1 C-0.22276173 12.75778632 -6.38987772 20.55710923 -13.44482422 29.89746094 C-42.50852616 69.19049095 -48.02504201 119.90545932 -41.4375 167.1875 C-35.45436526 204.88868987 -19.59302484 240.45455667 3 271 C3.54914063 271.79019531 4.09828125 272.58039063 4.6640625 273.39453125 C5.10492188 273.92433594 5.54578125 274.45414062 6 275 C6.66 275 7.32 275 8 275 C9.86018949 272.04477285 11.48375884 268.98699087 13.1484375 265.91796875 C14.91229902 263.13821231 16.17430331 261.63109321 19 260 C23.48354552 260.11798804 26.48866084 262.36649563 30 265 C32.01916683 269.03833367 31.59772548 273.62206473 31 278 C29.3384933 282.20947326 27.28728842 286.09935636 25 290 C30.32494914 293.80971971 35.81739542 297.00486064 41.625 300 C55.0201169 306.99502517 55.0201169 306.99502517 56.9375 312.875 C56.958125 313.57625 56.97875 314.2775 57 315 C59.64 315 62.28 315 65 315 C65 315.33 65 315.66 65 316 C60.91668235 316.02950374 56.8333928 316.04696535 52.75 316.0625 C51.61046875 316.07087891 50.4709375 316.07925781 49.296875 316.08789062 C8.63458699 316.20340849 -31.55380397 301.25884942 -61 273 C-61.88171875 272.18144531 -62.7634375 271.36289062 -63.671875 270.51953125 C-94.88178271 240.67615905 -111.37080934 197.17684182 -112.34912109 154.59033203 C-112.43749341 144.0373441 -111.55105426 134.26196727 -109 124 C-108.655933 122.50137483 -108.31219762 121.00267349 -107.96875 119.50390625 C-100.5567734 88.35553439 -85.35131508 60.84291291 -63 38 C-62.38898438 37.33871094 -61.77796875 36.67742187 -61.1484375 35.99609375 C-46.82019643 20.78557183 -27.19432717 10.63622962 -8 3 C-6.92951416 2.56107422 -6.92951416 2.56107422 -5.83740234 2.11328125 C-3.9146559 1.34816405 -1.95876727 0.66752452 0 0 Z " fill="#AAB3B7" transform="translate(135,28)"/>
<path d="M0 0 C9.40619676 6.85382657 16.14842191 15.48712321 18.66015625 27.03515625 C19.87123202 37.60074832 19.56964402 47.23229937 13.45703125 56.28515625 C9.62173196 60.98054554 5.36546599 64.23358542 0 67 C-0.69222656 67.39316406 -1.38445312 67.78632813 -2.09765625 68.19140625 C-10.7206778 72.43635854 -21.8135605 72.6582209 -31.03125 70.1875 C-41.33854464 65.49050497 -49.01391126 56.97217748 -54 47 C-54.86692047 32.57501185 -53.93117741 21.22844726 -45.04296875 9.2890625 C-33.60186542 -3.53022345 -14.93087712 -9.71167671 0 0 Z " fill="#434343" transform="translate(173,112)"/>
<path d="M0 0 C9.98680711 7.76590378 16.2930203 15.47840942 19 28 C20.20532137 39.6027401 18.89384883 49.55478511 11.5 58.8125 C6.80147373 63.73140743 1.2039421 66.39006574 -5 69 C-5.77859375 69.37253906 -6.5571875 69.74507813 -7.359375 70.12890625 C-15.47154064 72.80496089 -25.75987904 72.16200801 -33.4375 68.5625 C-41.49129424 63.83863991 -49.38294391 57.80775231 -53.22265625 49.0625 C-56.25727397 37.10702113 -54.43532152 25.34487544 -48.71484375 14.58203125 C-42.77833309 4.70989513 -33.76497799 -0.48431218 -23 -4 C-13.81204984 -5.77171845 -7.90847478 -5.07225094 0 0 Z " fill="#434343" transform="translate(293,120)"/>
<path d="M0 0 C4.15607968 0.58937071 7.13601157 2.96347802 10.4375 5.375 C11.05149658 5.82198242 11.66549316 6.26896484 12.2980957 6.72949219 C14.21039331 8.13816663 16.10820368 9.56392777 18 11 C18.57556641 11.43666992 19.15113281 11.87333984 19.74414062 12.32324219 C28.63207749 19.17802469 35.50083019 26.87691164 42 36 C42.43441406 36.60360352 42.86882812 37.20720703 43.31640625 37.82910156 C49.9119782 47.07766849 55.23039117 56.70282125 60 67 C60.53367187 68.12792969 61.06734375 69.25585938 61.6171875 70.41796875 C77.86938183 106.33279198 82.16087464 151.21572559 70 189 C69.76152344 189.76812012 69.52304687 190.53624023 69.27734375 191.32763672 C66.35567717 200.65237785 63.06383704 209.56473175 58.3125 218.125 C57.94423096 218.79394287 57.57596191 219.46288574 57.1965332 220.15209961 C55.24679125 223.49219169 53.76117933 225.76042397 50 227 C48.43313654 223.86627309 49.91686015 221.03725638 50.8125 217.8125 C55.90005348 198.44795867 56.21308956 178.46880704 56.1875 158.5625 C56.18689575 157.68837463 56.1862915 156.81424927 56.18566895 155.91363525 C56.13492199 128.75225427 55.54696725 100.09409992 44 75 C43.68385742 74.3100293 43.36771484 73.62005859 43.04199219 72.90917969 C37.92708352 62.02712567 31.55916054 51.94855927 24.9375 41.9375 C24.37512634 41.08120499 24.37512634 41.08120499 23.8013916 40.20761108 C18.74732084 32.54516142 13.27284854 25.69005617 7 19 C5.47876627 17.24737379 3.97171645 15.48190837 2.5 13.6875 C1.52546875 12.51767578 1.52546875 12.51767578 0.53125 11.32421875 C-1.13386615 8.79681031 -1.71601011 6.99933186 -2 4 C-1.0625 1.6875 -1.0625 1.6875 0 0 Z " fill="#EEF5FC" transform="translate(266,45)"/>
<path d="M0 0 C3.0426139 1.97564718 5.48095954 4.40384606 8 7 C8.54914063 7.51691406 9.09828125 8.03382813 9.6640625 8.56640625 C18.55582129 17.66335948 19.4591556 28.63392175 19.43115234 40.66455078 C19.32216896 45.40577092 19.09157138 49.6554498 17 54 C15.1953125 55.49609375 15.1953125 55.49609375 13.125 56.4375 C12.10792969 56.93056641 12.10792969 56.93056641 11.0703125 57.43359375 C8.62032002 58.10387471 7.35805149 57.8904878 5 57 C4.4225 56.46375 3.845 55.9275 3.25 55.375 C-0.16315112 53.28918542 -3.27153492 54.1949155 -7 55 C-7.73863281 55.21914062 -8.47726563 55.43828125 -9.23828125 55.6640625 C-13.49544694 56.88459705 -16.24097126 57.33986993 -20.375 55.5 C-24.0998472 53.25468293 -25.80866158 51.2888183 -27 47 C-27.89432023 31.88310313 -19.23613798 14.03240496 -10.296875 2.42578125 C-7.33237669 -0.83338105 -4.16697744 -0.53767451 0 0 Z " fill="#434343" transform="translate(218,179)"/>
<path d="M0 0 C3.66405279 0.77601739 5.09137181 1.8326183 7.625 4.625 C15.47618954 12.6903129 24.88493282 17.74687427 34.78027344 22.91723633 C48.0064527 29.95312163 48.0064527 29.95312163 49.9375 35.875 C49.958125 36.57625 49.97875 37.2775 50 38 C52.64 38 55.28 38 58 38 C58 38.33 58 38.66 58 39 C53.91668235 39.02950374 49.8333928 39.04696535 45.75 39.0625 C44.04070312 39.07506836 44.04070312 39.07506836 42.296875 39.08789062 C30.17809091 39.12231899 18.92326815 38.05961287 7.125 35.25 C5.99400879 34.98558105 4.86301758 34.72116211 3.69775391 34.44873047 C-4.43538181 32.49747853 -12.26104758 30.1800059 -20 27 C-18.80964097 23.61687432 -17.77077837 21.46908446 -15.0625 19.125 C-9.1550611 13.53045511 -4.69896259 6.60233984 0 0 Z " fill="#6C94A2" transform="translate(142,305)"/>
<path d="M0 0 C5.0188719 0.98731906 6.80507402 2.97544939 10.06762695 6.79541016 C13.4276553 12.48493906 13.18180559 18.88187925 13.3125 25.3125 C13.36893058 26.71694039 13.42880091 28.12124698 13.4921875 29.52539062 C13.63274129 32.93382013 13.73851998 36.33958496 13.8125 39.75 C11.02269334 40.44595819 8.23109396 41.13206674 5.4375 41.8125 C4.6434375 42.01166016 3.849375 42.21082031 3.03125 42.41601562 C-2.9609375 43.86328125 -2.9609375 43.86328125 -5.1875 42.75 C-6.10898477 41.01324521 -6.95260567 39.23461259 -7.75 37.4375 C-8.18441406 36.47199219 -8.61882812 35.50648438 -9.06640625 34.51171875 C-12.0717673 27.10826835 -12.72004849 18.34764546 -10.17578125 10.71484375 C-5.56285501 1.30890706 -5.56285501 1.30890706 0 0 Z " fill="#8ABED0" transform="translate(214.1875,298.25)"/>
<path d="M0 0 C2.66881787 3.16574062 4.03062018 6.22549409 5.37109375 10.07421875 C8.0255356 17.1925528 10.97967855 24.43280355 16.43359375 29.88671875 C15.80710937 30.36882812 15.180625 30.8509375 14.53515625 31.34765625 C13.71789062 31.97929687 12.900625 32.6109375 12.05859375 33.26171875 C11.24648438 33.88820313 10.434375 34.5146875 9.59765625 35.16015625 C7.3913618 36.85445369 7.3913618 36.85445369 5.43359375 38.88671875 C0.1187344 38.88671875 -3.80019231 35.26817213 -7.56640625 31.88671875 C-13.95728968 25.32034196 -16.98508173 17.03559304 -18.00390625 8.01171875 C-17.47423919 4.2283826 -16.8624578 1.97203802 -14.56640625 -1.11328125 C-9.10196794 -3.64246926 -4.73466195 -3.89870946 0 0 Z " fill="#8BBFD0" transform="translate(275.56640625,271.11328125)"/>
<path d="M0 0 C5.20607894 2.00242648 9.98656231 4.58032613 14.875 7.25 C16.18404297 7.94802734 16.18404297 7.94802734 17.51953125 8.66015625 C31.0338521 16.03714643 31.0338521 16.03714643 32.9375 21.875 C32.958125 22.57625 32.97875 23.2775 33 24 C35.64 24 38.28 24 41 24 C41 24.33 41 24.66 41 25 C36.91668235 25.02950374 32.8333928 25.04696535 28.75 25.0625 C27.04070312 25.07506836 27.04070312 25.07506836 25.296875 25.08789062 C14.53571848 25.11846209 4.19936607 24.62095789 -6.25 21.9375 C-7.00667969 21.75123047 -7.76335937 21.56496094 -8.54296875 21.37304688 C-10.36401847 20.92354726 -12.18234316 20.4630287 -14 20 C-12.95625983 16.86877949 -11.78983428 15.80687687 -9.46875 13.59375 C-6.52949561 10.4043463 -4.3277746 6.64525407 -2 3 C-1.34 2.01 -0.68 1.02 0 0 Z " fill="#A8B1B5" transform="translate(159,319)"/>
<path d="M0 0 C5.69863014 3.39726027 5.69863014 3.39726027 7 6 C8.27914959 15.03500594 5.51962698 21.29242185 1 29 C-2.11569405 27.59828464 -4.4114956 25.91591092 -6.9375 23.625 C-9.88821097 20.9831485 -12.87744637 18.43949502 -16 16 C-14.53437194 9.81179262 -10.91540406 4.90348952 -7 0 C-4.21306667 -1.39346667 -2.97563827 -0.87916585 0 0 Z " fill="#8ABFD1" transform="translate(159,289)"/>
</svg>
